Coordinates
version=1
nRows=10
nColumns=38
inDegrees=yes

Units are S.I. units (second, meters, Newtons, ...)
If the header above contains a line with 'inDegrees', this indicates whether rotational values are in degrees (yes) or radians (no).

endheader
time	pelvis_tilt	pelvis_list	pelvis_rotation	pelvis_tx	pelvis_ty	pelvis_tz	hip_flexion_r	hip_adduction_r	hip_rotation_r	knee_angle_r	ankle_angle_r	subtalar_angle_r	mtp_angle_r	hip_flexion_l	hip_adduction_l	hip_rotation_l	knee_angle_l	ankle_angle_l	subtalar_angle_l	mtp_angle_l	lumbar_extension	lumbar_bending	lumbar_rotation	arm_flex_r	arm_add_r	arm_rot_r	elbow_flex_r	pro_sup_r	wrist_flex_r	wrist_dev_r	arm_flex_l	arm_add_l	arm_rot_l	elbow_flex_l	pro_sup_l	wrist_flex_l	wrist_dev_l
      1.00000000	      5.94013818	    -11.57550523	      6.27787681	     -1.86261465	      0.98367735	      0.23885587	     11.91575132	     13.98431037	     -8.78678270	    -42.93180701	     29.98451205	     10.53811932	     -1.50521874	     19.70807484	    -10.55584366	      9.28719675	   -111.78066510	     -5.68686342	      8.04424460	     28.08056411	    -20.34964965	     14.45259199	      4.16449043	    -25.02780586	    -38.19312258	     -7.93268949	     85.68450361	    157.74893627	      0.00000000	      0.00000000	    -26.22677705	    -18.55616077	      6.70710711	     71.78954963	    106.83482338	      0.00000000	      0.00000000
      1.00400000	      5.42643083	    -11.07352580	      6.39917883	     -1.84915900	      0.98294772	      0.23795481	     11.45211975	     13.28934240	     -9.08670988	    -42.93660498	     30.60857249	     11.62046636	     -1.69399856	     21.59635534	     -9.46023191	      9.49513618	   -112.29604917	     -3.62320621	      8.62945318	     11.54447828	    -19.78051593	     13.98032292	      3.92762010	    -23.62761060	    -38.51774895	     -7.51728880	     86.12959306	    158.69285656	      0.00000000	      0.00000000	    -26.65195626	    -18.40087731	      5.85323244	     69.27650821	    118.27279158	      0.00000000	      0.00000000
      1.00800000	      5.50759499	    -10.90869346	      6.36065143	     -1.83510105	      0.98331744	      0.23859410	     10.08962573	     13.34873878	     -8.81262921	    -42.38531437	     31.32499319	     11.71548760	     -1.61532062	     22.78848603	     -9.22375306	      9.55352771	   -112.41985687	     -3.42970376	      9.47797307	     11.65239824	    -19.89091623	     13.70102827	      4.32622851	    -22.58954666	    -38.30800895	     -7.68822189	     86.96838506	    158.74076728	      0.00000000	      0.00000000	    -27.16407016	    -18.78200550	      6.22319984	     68.65217129	    118.51783115	      0.00000000	      0.00000000
      1.01200000	      5.52057249	    -10.49033723	      6.40179752	     -1.82115863	      0.98404711	      0.23826631	      8.77166796	     12.98777020	     -8.69564308	    -41.83048268	     31.58008420	     12.06473897	     -1.51636137	     23.90509422	     -8.47514109	      9.64194763	   -112.35024096	     -2.84066580	     10.35405298	     11.81829224	    -19.91898444	     13.27686357	      4.51616489	    -21.63970704	    -38.31629112	     -7.84394963	     87.76839628	    158.81564123	      0.00000000	      0.00000000	    -27.60337332	    -19.00196403	      6.54011781	     67.88318223	    118.95342675	      0.00000000	      0.00000000
      1.01600000	      5.42460162	    -10.25905348	      6.38775159	     -1.80729874	      0.98473754	      0.23847582	      7.53613393	     12.89721604	     -8.51256440	    -41.12427610	     31.57081505	     12.18756415	     -1.49711420	     25.26370291	     -8.05839256	      9.62584064	   -112.24720869	     -2.75127329	     10.42191257	     11.84156688	    -19.85213222	     12.98713276	      4.72765236	    -20.69730789	    -38.23420149	     -8.02965244	     88.92976232	    158.85901254	      0.00000000	      0.00000000	    -28.13647442	    -19.31228033	      6.69657029	     67.48293978	    119.02943026	      0.00000000	      0.00000000
      1.02000000	      5.25627579	     -9.97777753	      6.38464064	     -1.79322972	      0.98569610	      0.23857147	      6.34094127	     12.72042191	     -8.30232736	    -40.34494951	     31.53660418	     12.36131203	     -1.46436238	     26.54540293	     -7.50776606	      9.59829007	   -111.99254089	     -2.50124330	     10.50430234	     11.87448397	    -19.67663081	     12.63511426	      4.95945267	    -19.87594380	    -38.14378153	     -8.22282601	     90.05448408	    158.90581246	      0.00000000	      0.00000000	    -28.76679637	    -19.49577541	      6.83612791	     67.01823916	    119.09081201	      0.00000000	      0.00000000
      1.02400000	      5.11764963	     -8.91566899	      6.26631132	     -1.77922471	      0.98708407	      0.23806316	      5.09701209	     11.52858606	     -8.30565323	    -39.85230811	     31.80086505	     13.27014659	     -1.01513148	     27.53171741	     -6.14408996	      9.02746994	   -111.50261247	     -2.03510400	     10.88529945	     11.60892723	    -19.58116116	     11.49514488	      5.14549115	    -19.19329214	    -37.94519954	     -8.72109463	     91.23448640	    159.17511540	      0.00000000	      0.00000000	    -29.17067407	    -19.90634924	      7.25858536	     66.43066655	    119.92074765	      0.00000000	      0.00000000
      1.02800000	      4.91541522	     -9.29280382	      6.57912576	     -1.76450122	      0.98793616	      0.23855152	      3.86028066	     12.16973641	     -8.27262200	    -38.65886945	     31.34646694	     13.02439895	     -0.60199406	     29.34456027	     -6.57678163	      9.78744396	   -111.11367710	     -2.81287610	     12.41144801	     11.77447889	    -19.16431834	     11.84487649	      5.28510664	    -18.66136916	    -37.58529697	     -9.39236123	     92.60916834	    159.43880754	      0.00000000	      0.00000000	    -29.93457984	    -20.10571150	      7.08888449	     66.17643794	    120.73995069	      0.00000000	      0.00000000
      1.03200000	      4.66255540	     -9.04225488	      6.55490856	     -1.75038849	      0.98941675	      0.23869444	      2.68298759	     12.06162154	     -7.89005214	    -37.67025872	     30.97769814	     13.15572760	     -0.57708800	     30.61203571	     -6.09930555	      9.64917957	   -110.52797841	     -2.76975853	     12.32481231	     11.78481951	    -18.85882568	     11.52299021	      5.45883416	    -17.90664931	    -37.48826566	     -9.61711804	     93.95849472	    159.49905596	      0.00000000	      0.00000000	    -30.63919573	    -20.31172073	      7.16500813	     65.96689857	    120.79877136	      0.00000000	      0.00000000
      1.03600000	      4.48005402	     -7.80394072	      6.23914049	     -1.73651206	      0.99186405	      0.23817248	      1.47024164	     10.76964000	     -7.43458105	    -37.05383618	     30.45813608	     13.21531831	      0.04398703	     31.12914423	     -4.44526933	      8.41536875	   -109.70479808	     -1.35667716	     10.23378463	     11.74872756	    -18.81179592	     10.15881655	      5.79413686	    -17.35529144	    -37.14419734	    -10.29506461	     95.35515721	    159.70997783	      0.00000000	      0.00000000	    -30.99290882	    -20.57992456	      7.33109469	     65.52599181	    121.30523814	      0.00000000	      0.00000000
